HIERARCHY
ROOT root
{
	OFFSET	0	13.1	24.9
	CHANNELS 6  Xposition Yposition Zposition Xrotation Yrotation Zrotation
	JOINT spine_1
	{
		OFFSET	0	9.99999	0
		CHANNELS 3  Xrotation Yrotation Zrotation
		JOINT spine_2
		{
			OFFSET	0	112	-10
			CHANNELS 3  Xrotation Yrotation Zrotation
			JOINT spine_3
			{
				OFFSET	0	206.5	19.3
				CHANNELS 3  Xrotation Yrotation Zrotation
				JOINT spine_4
				{
					OFFSET	0	110.4	14.6
					CHANNELS 3  Xrotation Yrotation Zrotation
					JOINT neck_1
					{
						OFFSET	0	71.8	-50.3
						CHANNELS 3  Xrotation Yrotation Zrotation
						JOINT neck_2
						{
							OFFSET	0	86.2	-25.8
							CHANNELS 3  Xrotation Yrotation Zrotation
							JOINT head_ee
							{
								OFFSET	0	179.8	-8.7
								CHANNELS 3  Xrotation Yrotation Zrotation
								End Site
								{
									OFFSET	1	0	0
								}
							}
						}
					}
					JOINT left_clavicle
					{
						OFFSET	-43.2	22.4	-70.8
						CHANNELS 3  Xrotation Yrotation Zrotation
						JOINT left_shoulder
						{
							OFFSET	-93.9	-5.79999	48.7
							CHANNELS 3  Xrotation Yrotation Zrotation
							JOINT left_elbow
							{
								OFFSET	-291.4	-30.8	15.2
								CHANNELS 3  Xrotation Yrotation Zrotation
								JOINT left_lowarm_twist
								{
									OFFSET	-110.7	-3.89999	13.6
									CHANNELS 3  Xrotation Yrotation Zrotation
									JOINT left_hand
									{
										OFFSET	-110.7	-3.89999	13.6
										CHANNELS 3  Xrotation Yrotation Zrotation
										JOINT left_ee
										{
											OFFSET	-80.8	-5.10001	12.1
											CHANNELS 3  Xrotation Yrotation Zrotation
											End Site
											{
												OFFSET	1	0	0
											}
										}
									}
								}
							}
						}
					}
					JOINT right_clavicle
					{
						OFFSET	43.2	22.4	-70.8
						CHANNELS 3  Xrotation Yrotation Zrotation
						JOINT right_shoulder
						{
							OFFSET	93.9	-5.79999	48.7
							CHANNELS 3  Xrotation Yrotation Zrotation
							JOINT right_elbow
							{
								OFFSET	291.4	-30.8	15.2
								CHANNELS 3  Xrotation Yrotation Zrotation
								JOINT right_lowarm_twist
								{
									OFFSET	110.7	-3.89999	13.6
									CHANNELS 3  Xrotation Yrotation Zrotation
									JOINT right_hand
									{
										OFFSET	110.7	-3.89999	13.6
										CHANNELS 3  Xrotation Yrotation Zrotation
										JOINT right_ee
										{
											OFFSET	80.8	-5.10001	12.1
											CHANNELS 3  Xrotation Yrotation Zrotation
											End Site
											{
												OFFSET	1	0	0
											}
										}
									}
								}
							}
						}
					}
				}
			}
		}
	}
	JOINT left_hip
	{
		OFFSET	-82.8	-127.5	0.300001
		CHANNELS 3  Xrotation Yrotation Zrotation
		JOINT left_knee
		{
			OFFSET	-28.2	-396.7	2.2
			CHANNELS 3  Xrotation Yrotation Zrotation
			JOINT left_ankle
			{
				OFFSET	-11.7	-411.3	35.4
				CHANNELS 3  Xrotation Yrotation Zrotation
				JOINT left_toes
				{
					OFFSET	0	-60	-88.6
					CHANNELS 3  Xrotation Yrotation Zrotation
					JOINT left_foot_ee
					{
						OFFSET	-22.5	-16.5	-42.2
						CHANNELS 3  Xrotation Yrotation Zrotation
						End Site
						{
							OFFSET	1	0	0
						}
					}
				}
			}
		}
	}
	JOINT right_hip
	{
		OFFSET	82.8	-127.5	0.300001
		CHANNELS 3  Xrotation Yrotation Zrotation
		JOINT right_knee
		{
			OFFSET	28.2	-396.7	2.2
			CHANNELS 3  Xrotation Yrotation Zrotation
			JOINT right_ankle
			{
				OFFSET	11.7	-411.3	35.4
				CHANNELS 3  Xrotation Yrotation Zrotation
				JOINT right_toes
				{
					OFFSET	0	-60	-88.6
					CHANNELS 3  Xrotation Yrotation Zrotation
					JOINT right_foot_ee
					{
						OFFSET	22.5	-16.5	-42.2
						CHANNELS 3  Xrotation Yrotation Zrotation
						End Site
						{
							OFFSET	1	0	0
						}
					}
				}
			}
		}
	}
}
MOTION
Frames: 8
Frame Time: 0.02
2800.94 716.97 -1473.77 -5.7892569504 45.7835567235 6.52635547566 1.42923 0.176491 -0.794784 1.42955 0.226706 -0.781944 1.42642 0.368051 -0.726205 1.42577 0.248745 -0.775215 -13.9405 18.863 2.64979 -14.9584 34.4159 8.89994 -0.0 0.0 -0.0 9.12677 22.5854 15.6778 -5.54352 -26.8735 41.1335 5.0127 -68.0398 3.38482 -19.3452 -1.06725 2.21978 -3.62816 28.565 -8.47196 -0.0 0.0 -0.0 10.8548 19.281 -21.3759 -28.7139 6.8582 -62.9068 0.61498 16.9431 -0.091598 47.6513 0.805848 5.86065 -0.25913 -29.3272 -10.0441 0.0 0.0 0.0 -17.7768 33.1082 12.1302 -6.74069 0.218271 1.01088 34.7897 -3.27775 -4.43062 -25.5541 0.0 0.0 -0.0 0.0 -0.0 33.6365 12.5781 -13.5265 -2.4629 -0.0935432 -0.366369 -17.8104 24.2901 -3.19027 -22.7354 0.0 0.0 0.0 0.0 0.0 
2752.29487202 722.802 -1491.93454854 -6.62045662578 46.667265086 7.10038561154 1.71619 0.358837 -0.921967 1.71657 0.416774 -0.897267 1.70993 0.572273 -0.807032 1.70929 0.437641 -0.887277 -10.5124 18.768 0.804207 -11.0574 34.93 5.91655 -0.0 0.0 -0.0 8.05872 24.3493 13.8574 -8.5979 -25.3076 43.7986 4.58277 -66.2047 2.98866 -18.1593 -0.98069 2.09501 -2.81196 27.7676 -4.47238 -0.0 0.0 -0.0 11.7143 23.0959 -23.0267 -28.3557 4.14984 -63.4779 0.651311 17.8819 -0.102471 48.0405 0.832128 5.90297 0.318392 -28.8162 -13.0398 0.0 0.0 0.0 -15.628 34.4821 9.88733 -13.3518 0.315593 2.02009 27.3462 7.36402 -3.59832 -21.768 0.0 0.0 -0.0 0.0 -0.0 31.5557 13.1659 -12.2012 -5.89539 -0.197448 -0.882827 -7.57755 28.1671 -1.40629 -22.2112 0.0 0.0 0.0 0.0 0.0 
2736.05195479 728.716 -1499.28611234 -6.0518706234 46.4472122249 6.18053930159 1.61699 0.354259 -0.731938 1.6172 0.400115 -0.707914 1.61218 0.522673 -0.622936 1.61188 0.417735 -0.697661 -12.448 18.8992 2.40465 -13.2469 34.4303 8.15001 -0.0 0.0 -0.0 7.84958 24.739 13.5101 -9.24317 -24.6633 44.5154 4.16282 -64.1105 2.60751 -18.2546 -0.987547 2.10509 -2.64874 27.0395 -3.96729 -0.0 0.0 -0.0 12.3144 24.5416 -24.2593 -28.1882 4.31205 -63.6579 0.605272 16.6907 -0.0887896 47.8074 0.816351 5.87764 0.570707 -29.1881 -14.5613 0.0 0.0 0.0 -14.5404 33.9003 8.80639 -15.3807 0.322048 2.3313 22.9793 8.88495 -3.09504 -22.5367 0.0 0.0 -0.0 0.0 -0.0 29.529 13.6296 -11.0319 -5.8653 -0.196672 -0.878275 -6.41515 27.4017 -1.17621 -21.8363 0.0 0.0 0.0 0.0 0.0 
2720.92718009 728.663 -1506.89372488 -5.57684001318 46.1521368962 5.47462736162 1.54907 0.481416 -0.556426 1.54909 0.515847 -0.524665 1.54428 0.603487 -0.42092 1.54443 0.529437 -0.510947 -12.584 19.0071 2.80588 -13.3949 34.4068 8.60834 -0.0 0.0 -0.0 7.60751 25.2408 13.1086 -9.67326 -24.3619 44.53 3.89464 -62.5838 2.3678 -18.3254 -0.992659 2.11259 -2.59378 27.3894 -3.48063 -0.0 0.0 -0.0 12.5667 25.3849 -24.7484 -27.4342 4.39615 -63.521 0.674295 18.4707 -0.10964 48.2664 0.847516 5.92746 0.79154 -29.2161 -15.8047 0.0 0.0 0.0 -14.122 33.815 7.57683 -17.5017 0.317012 2.65666 20.0907 11.4211 -2.74968 -23.04 0.0 0.0 -0.0 0.0 -0.0 28.02 13.9037 -10.5159 -6.24233 -0.206223 -0.935346 -4.20791 28.0201 -0.773929 -21.0775 0.0 0.0 0.0 0.0 0.0 
2687.9042056 729.848 -1524.87894819 -4.19363308536 47.1598210305 4.41139227362 1.23456 0.400088 -0.373273 1.23454 0.423029 -0.347058 1.23192 0.481032 -0.260788 1.23209 0.433809 -0.333486 -15.1422 19.5072 4.48064 -16.3223 34.7442 11.2681 -0.0 0.0 -0.0 7.03854 24.7866 12.3678 -12.7461 -21.7573 44.1502 3.5758 -60.5382 2.08739 -19.7234 -1.0954 2.2592 -2.34466 21.8011 -4.96153 -0.0 0.0 -0.0 13.1189 26.3994 -25.9043 -27.4346 8.14173 -62.6889 0.757417 20.5662 -0.137417 49.0732 0.903265 6.01441 0.572834 -29.104 -14.5471 0.0 0.0 0.0 -12.6383 29.9945 5.80623 -25.0803 0.200852 3.81293 17.6053 12.1552 -2.43818 -23.0248 0.0 0.0 -0.0 0.0 -0.0 25.0779 13.412 -11.358 -7.67149 -0.23901 -1.15221 -1.64817 22.6265 -0.28277 -19.9506 0.0 0.0 0.0 0.0 0.0 
2659.8730938 730.202 -1539.80305971 -2.5300640729 46.984972751 3.23286990774 1.20621 0.245721 -0.296281 1.20622 0.264076 -0.280045 1.2049 0.312378 -0.224903 1.20493 0.272939 -0.271414 -16.5917 19.6762 5.23757 -17.9824 34.8566 12.5712 -0.0 0.0 -0.0 6.75244 24.8418 11.9647 -15.9958 -18.2213 44.32 3.23598 -58.03 1.79517 -22.4515 -1.3061 2.53794 -2.28069 15.1048 -7.96917 -0.0 0.0 -0.0 13.5971 25.8957 -27.0747 -25.7835 7.63296 -62.266 0.775409 21.0125 -0.143803 48.878 0.889663 5.99344 -0.0471552 -26.7939 -10.3044 0.0 0.0 0.0 -11.9911 27.3441 4.5178 -30.7257 0.0155851 4.65918 18.6475 12.5267 -2.57257 -23.4724 0.0 0.0 -0.0 0.0 -0.0 20.9166 11.085 -11.1696 -9.03061 -0.265162 -1.35912 7.26992 22.3963 1.20938 -22.5588 0.0 0.0 0.0 0.0 0.0 
2625.14225857 733.101 -1552.95012444 1.04916078924 46.9407879215 -0.107555800176 1.35035 0.0892024 -0.418719 1.35044 0.115666 -0.412194 1.3496 0.190745 -0.383275 1.34942 0.127821 -0.408589 -20.6965 20.5306 6.8358 -22.8884 36.2317 16.1045 -0.0 0.0 -0.0 6.57255 23.4958 11.8317 -20.5737 -13.2096 46.1514 2.82879 -54.4772 1.45643 -27.296 -1.7122 3.0073 -1.74745 8.43718 -7.8075 -0.0 0.0 -0.0 13.5358 24.4346 -27.0984 -25.0239 10.8435 -61.0161 0.802581 21.6814 -0.153694 48.4218 0.858155 5.94426 -0.521016 -24.5056 -6.75894 0.0 0.0 0.0 -8.1617 24.7908 -0.681338 -45.3125 -0.838861 6.7254 23.9391 7.25827 -3.20693 -23.1607 0.0 0.0 -0.0 0.0 -0.0 11.3993 9.45786 -8.67625 -1.85783 -0.0720246 -0.276002 11.8857 27.723 2.05995 -24.3139 0.0 0.0 0.0 0.0 0.0 
2625.85133509 733.101 -1554.50597351 1.03933885096 46.4327705404 -0.0940571111128 1.35035 0.0892024 -0.418719 1.35044 0.115666 -0.412194 1.3496 0.190745 -0.383275 1.34942 0.127821 -0.408589 -20.6965 20.5306 6.8358 -22.8884 36.2317 16.1045 -0.0 0.0 -0.0 6.57255 23.4958 11.8317 -20.5737 -13.2096 46.1514 2.82879 -54.4772 1.45643 -27.296 -1.7122 3.0073 -1.74745 8.43718 -7.8075 -0.0 0.0 -0.0 13.5358 24.4346 -27.0984 -25.0239 10.8435 -61.0161 0.802581 21.6814 -0.153694 48.4218 0.858155 5.94426 -0.521016 -24.5056 -6.75894 0.0 0.0 0.0 -8.1617 24.7908 -0.681338 -45.3125 -0.838861 6.7254 23.9391 7.25827 -3.20693 -23.1607 0.0 0.0 -0.0 0.0 -0.0 11.3993 9.45786 -8.67625 -1.85783 -0.0720246 -0.276002 11.8857 27.723 2.05995 -24.3139 0.0 0.0 0.0 0.0 0.0 
